<?xml version="1.0" encoding="UTF-8"?>
<svg id="Calque_1" data-name="Calque 1" xmlns="http://www.w3.org/2000/svg" viewBox="0 0 100 16">
  <defs>
    <style>
      .cls-1 {
        fill: #f9f9f9;
      }
    </style>
  </defs>
  <path class="cls-1" d="M26.11,7.03c-.02-2.14-.04-4.26-.07-6.38-.07,0-.17,0-.3.01-1.15.04-2.26.07-3.61.08l-8.12,4.83L5.74.66l-.03-.02c-1.2,0-2.63,0-4.23.03-.15,0-.29,0-.44,0,1.61,1.14,3.22,2.28,4.82,3.43l.03,8.13,8.26,3.14,7.83-2.98.02-8.31,2.31-1.63v12.27c.6,0,1.21,0,1.81,0,0-2.54,0-5.11-.02-7.69ZM20.14,10.1c-2,.74-4,1.48-6.01,2.22-2.06-.78-4.11-1.55-6.17-2.33,0-1.73-.01-3.45-.02-5.18,2.01,1.03,4.02,2.05,6.03,3.08h.1c2.03-1.02,4.07-2.04,6.1-3.07l-.03,5.28Z"/>
  <g>
    <rect class="cls-1" x="26.98" y=".71" width="8.65" height="2.12"/>
    <rect class="cls-1" x="26.98" y="6.32" width="8.65" height="2.35"/>
    <rect class="cls-1" x="26.98" y="12.38" width="8.65" height="2.25"/>
    <g>
      <path class="cls-1" d="M39.28,14.67h-2.17V6.32h2.17v1.39h-.05c.05-.17.18-.38.39-.64.21-.25.51-.48.89-.69.38-.21.84-.31,1.37-.31.39,0,.73.05,1.04.16.31.11.52.22.65.33l-.87,1.79c-.09-.11-.25-.22-.49-.32-.24-.11-.54-.16-.89-.16-.44,0-.81.13-1.11.39-.3.26-.53.57-.69.93-.16.36-.23.69-.23,1.01v4.47Z"/>
      <path class="cls-1" d="M46.68,10.42c0,.81.17,1.46.5,1.94.34.48.87.72,1.59.72s1.26-.24,1.6-.72c.33-.48.5-1.13.5-1.94v-4.1h2.16v4.37c0,.84-.17,1.58-.5,2.21s-.81,1.13-1.44,1.48c-.63.35-1.4.53-2.31.53s-1.67-.18-2.3-.53-1.11-.85-1.44-1.48c-.33-.63-.5-1.37-.5-2.21v-4.37h2.15v4.1Z"/>
      <path class="cls-1" d="M72.77,14.67v-1.55c-.05.16-.21.39-.46.67-.25.28-.6.54-1.04.77-.44.23-.95.35-1.55.35-.78,0-1.48-.19-2.11-.56-.62-.37-1.12-.89-1.47-1.56-.36-.66-.54-1.43-.54-2.3s.18-1.63.54-2.3c.36-.66.85-1.18,1.47-1.56.62-.38,1.33-.56,2.11-.56.58,0,1.09.1,1.52.31.43.2.77.44,1.03.7.26.26.42.49.48.69v-1.45h2.16v8.35h-2.14ZM67.75,10.5c0,.54.12,1,.36,1.4.24.4.55.71.93.93.38.22.79.33,1.24.33.47,0,.9-.11,1.27-.34.37-.22.66-.53.87-.93.21-.4.32-.86.32-1.39s-.11-.99-.32-1.39c-.21-.4-.51-.71-.87-.94-.37-.23-.79-.34-1.27-.34-.44,0-.85.11-1.24.33-.38.22-.69.53-.93.93-.24.4-.36.87-.36,1.4Z"/>
      <path class="cls-1" d="M88.93,3.82c-.37,0-.68-.13-.94-.4-.26-.26-.39-.58-.39-.95s.13-.68.39-.95c.26-.27.57-.4.94-.4.24,0,.47.06.68.19.21.13.37.29.5.49.13.2.19.43.19.68,0,.37-.13.68-.4.95-.26.26-.59.4-.97.4ZM87.82,14.67V6.32h2.17v8.35h-2.17Z"/>
      <path class="cls-1" d="M95.85,6.08c.47,0,.9.04,1.3.13.4.09.74.19,1.03.32s.48.22.59.31l-.79,1.34c-.14-.12-.38-.25-.73-.4-.35-.15-.74-.22-1.17-.22s-.8.08-1.1.23c-.3.16-.45.39-.45.7s.16.55.47.73c.32.18.74.34,1.29.46.45.1.87.24,1.28.42.41.18.74.43,1,.76.26.33.39.77.39,1.32s-.11.96-.33,1.31c-.22.35-.51.63-.88.84-.37.21-.77.36-1.22.45-.44.09-.89.14-1.34.14-.55,0-1.04-.05-1.47-.16-.43-.11-.79-.24-1.07-.38-.28-.15-.49-.27-.61-.37l.79-1.51c.18.17.46.35.86.53.4.19.85.28,1.34.28.53,0,.95-.1,1.27-.31.32-.2.48-.47.48-.81,0-.25-.08-.45-.23-.61-.15-.16-.36-.28-.63-.38-.26-.09-.56-.18-.88-.25-.31-.07-.61-.17-.92-.29-.31-.12-.59-.27-.85-.47-.26-.19-.46-.44-.62-.73-.16-.29-.23-.63-.23-1.03,0-.5.16-.93.48-1.28.32-.35.74-.62,1.26-.8.52-.18,1.08-.27,1.68-.27Z"/>
    </g>
    <g>
      <polygon class="cls-1" points="80.95 8.31 79.4 6.32 76.93 6.32 79.6 9.68 80.95 8.31"/>
      <polygon class="cls-1" points="82.4 10.2 85.57 6.28 83.3 6.28 81.16 8.85 81.15 8.85 79.9 10.34 79.9 10.34 76.31 14.63 78.62 14.63 81.08 11.54 83.54 14.63 86 14.63 82.4 10.2"/>
    </g>
    <g>
      <path class="cls-1" d="M61.32,12.39c-.16.17-.34.31-.55.43-.39.22-.82.34-1.29.34-.43,0-.84-.11-1.21-.33-.37-.22-.67-.53-.89-.93-.22-.4-.34-.87-.34-1.4s.11-1,.34-1.4c.22-.4.52-.71.89-.93.37-.22.77-.33,1.21-.33.47,0,.91.11,1.29.34.21.12.39.27.55.43v-1.75c-.23-.18-.51-.34-.84-.49-.45-.2-.97-.3-1.56-.3-.79,0-1.48.19-2.08.56-.6.38-1.08.9-1.42,1.56-.34.66-.51,1.43-.51,2.3s.17,1.63.51,2.3c.34.66.82,1.18,1.42,1.56.6.37,1.3.56,2.08.56.54,0,1.03-.1,1.47-.3.36-.16.67-.35.93-.56v-1.66Z"/>
      <path class="cls-1" d="M61.82.68v4.64l.03,9.35h2.05c0-4.66,0-9.33.01-13.99h-2.1Z"/>
    </g>
  </g>
</svg>