<?xml version="1.0" encoding="UTF-8"?>
<svg id="Calque_1" data-name="Calque 1" xmlns="http://www.w3.org/2000/svg" viewBox="0 0 100 100">
  <defs>
    <style>
      .cls-1 {
        fill: #f7f7f7;
      }
    </style>
  </defs>
  <path class="cls-1" d="M98.15,49.75c-.06-8.31-.15-16.57-.27-24.77-.26,0-.67.02-1.16.04-4.45.15-8.78.27-14.03.33l-31.55,18.75L19.02,24.97l-.13-.09c-4.65-.01-10.2.01-16.43.12-.57,0-1.13.02-1.7.03,6.25,4.44,12.49,8.88,18.74,13.32l.13,31.59,32.1,12.21,30.43-11.57.06-32.29,8.96-6.31v47.69c2.35,0,4.69-.02,7.04-.02.02-9.88,0-19.84-.08-29.87Z"/>
</svg>