<?xml version="1.0" encoding="UTF-8"?>
<svg id="Calque_1" data-name="Calque 1" xmlns="http://www.w3.org/2000/svg" viewBox="0 0 100 100">
  <defs>
    <style>
      .cls-1 {
        fill: #f9f9f9;
      }
    </style>
  </defs>
  <path class="cls-1" d="M97.06,46.37c-.06-8.04-.14-16.03-.26-23.96-.25,0-.65.02-1.12.04-4.3.15-8.5.26-13.57.32l-30.52,18.14-31.07-18.5-.12-.09c-4.5-.01-9.87.01-15.89.11-.55,0-1.09.02-1.64.03,6.04,4.29,12.09,8.59,18.13,12.88l.13,30.56,31.05,11.81,29.43-11.19.06-31.23,8.66-6.11v46.13c2.27,0,4.54-.02,6.81-.02.02-9.56,0-19.19-.07-28.9ZM74.63,57.88c-7.53,2.78-15.05,5.56-22.58,8.34-7.73-2.92-15.46-5.84-23.19-8.76-.02-6.49-.04-12.97-.06-19.46,7.55,3.86,15.11,7.71,22.66,11.57h.36c7.64-3.84,15.29-7.68,22.93-11.52-.04,6.61-.08,13.22-.12,19.84Z"/>
</svg>